# xmcd CD database file
#
# Track frame offsets:
#	150
#	13003
#	27601
#	42345
#	55490
#	70198
#	82074
#	97025
#	110996
#	124753
#	140232
#	153118
#	168455
#	180291
#	194155
#	207370
#	222292
#	237143
#	251192
#	266240
#	279563
#
# Disc length: 3917 seconds
#
# Revision: 0
# Processed by: cddbd v1.5.2PL0 Copyright (c) Steve Scherf et al.
# Submitted via: CDex 1.51
#
DISCID=4e0f4b15
DTITLE=Various Artist - Discover Jazz - Divas
DYEAR=2004
DGENRE=Jazz
TTITLE0=Careless - Ella Fitzgerald
TTITLE1=I've Got A Crush On You - Ella Fitzgerald
TTITLE2=I've Got The World On A String - Ella Fitzgerald
TTITLE3=Angel Eyes - Ella Fitzgerald
TTITLE4=Someone To Watch Over Me - Ella Fitzgerald
TTITLE5=It's Only A Paper Moon - Ella Fitzgerald
TTITLE6=Sentimental Journey - Ella Fitzgerald
TTITLE7=Street Of Dreams - Sarah Vaughan
TTITLE8=Ain't Misbehavin' - Sarah Vaughan
TTITLE9=Come Rain Or Come Shine - Sarah Vaughan
TTITLE10=What A Difference A Day Made - Sarah Vaughan
TTITLE11=The Nearness Of You - Sarah Vaughan
TTITLE12=Nice Work If You Can Get It - Sarah Vaughan
TTITLE13=You Go To My Head - Sarah Vaughan
TTITLE14=That Ole Devil Called Love - Billie Holiday
TTITLE15=Lover Man - Billie Holiday
TTITLE16=Embraceable You - Billie Holiday
TTITLE17=He's Funny That Way - Billie Holiday
TTITLE18=Lover Come Back To Me - Billie Holiday
TTITLE19=Don't Explain - Billie Holiday
TTITLE20=As Time Goes By - Billie Holiday
EXTD=YEAR: 2004
EXTT0=
EXTT1=
EXTT2=
EXTT3=
EXTT4=
EXTT5=
EXTT6=
EXTT7=
EXTT8=
EXTT9=
EXTT10=
EXTT11=
EXTT12=
EXTT13=
EXTT14=
EXTT15=
EXTT16=
EXTT17=
EXTT18=
EXTT19=
EXTT20=
PLAYORDER=
